# xmcd
#
# Track frame offsets: 
#        150
#        15787
#        29081
#        41929
#        55753
#        68020
#        85215
#        96155
#        109052
#        119379
#        131224
#        149943
#        159908
#
# Disc length: 4323 seconds
#
# Revision: 0
# Processed by: cddbd v1.5.2PL0 Copyright (c) Steve Scherf et al.
# Submitted via: ExactAudioCopy v1.0b4
#
DISCID=b610e10d
DTITLE=Duster Bennett - 12 DB's (LP)
DYEAR=1970
DGENRE=Blues
TTITLE0=Slim's Tune
TTITLE1=I Chose To Sing The Blues
TTITLE2=Sugar Beet
TTITLE3=I Love My Baby
TTITLE4=Vitamin Pills
TTITLE5=Everyday
TTITLE6=Act Nice And Gentle
TTITLE7=Woman Without Love
TTITLE8=That Mean Old Look
TTITLE9=Sweeter Than Sugar
TTITLE10=On Reconsideration
TTITLE11=Hill St. Rag
TTITLE12=12 DB's (LP)
EXTD=
EXTT0=
EXTT1=
EXTT2=
EXTT3=
EXTT4=
EXTT5=
EXTT6=
EXTT7=
EXTT8=
EXTT9=
EXTT10=
EXTT11=
EXTT12=
PLAYORDER=
